<?xml version="1.0" standalone="no"?>
<!DOCTYPE svg PUBLIC "-//W3C//DTD SVG 20010904//EN"
 "http://www.w3.org/TR/2001/REC-SVG-20010904/DTD/svg10.dtd">
<svg version="1.0" xmlns="http://www.w3.org/2000/svg"
 width="50.000000pt" height="20.000000pt" viewBox="0 0 50.000000 20.000000"
 preserveAspectRatio="xMidYMid meet">
<metadata>
Created by potrace 1.16, written by Peter Selinger 2001-2019
</metadata>
<g transform="translate(0.000000,20.000000) scale(0.005556,-0.005362)"
fill="#000000" stroke="none">
<path d="M6682 3503 c-11 -27 -57 -130 -100 -230 l-80 -183 124 0 124 0 30 63
c16 34 47 105 69 157 21 52 53 125 70 162 17 36 31 69 31 72 0 3 -56 6 -124 6
l-124 0 -20 -47z"/>
<path d="M458 2793 l-318 -3 0 -985 0 -985 483 0 c532 0 540 1 666 63 89 43
195 150 244 244 52 100 71 201 57 306 -24 171 -97 282 -263 400 -17 12 -16 15
13 45 156 164 193 418 88 614 -38 71 -135 171 -210 216 -105 63 -237 94 -378
89 -36 -1 -208 -3 -382 -4z m507 -234 c84 -15 142 -46 201 -104 86 -85 115
-201 77 -311 -23 -70 -118 -163 -198 -195 -58 -23 -70 -24 -367 -27 l-308 -3
0 325 0 326 268 0 c150 0 294 -5 327 -11z m203 -903 c154 -71 230 -238 178
-392 -32 -98 -161 -193 -291 -214 -33 -5 -201 -10 -372 -10 l-313 0 0 325 0
326 368 -3 367 -3 63 -29z"/>
<path d="M2577 2792 c-3 -4 -30 -64 -60 -133 -30 -70 -66 -151 -80 -180 -14
-30 -48 -110 -77 -179 -29 -69 -58 -135 -66 -147 -8 -12 -14 -27 -14 -33 0 -6
-18 -49 -40 -96 -22 -47 -40 -88 -40 -91 0 -2 -11 -28 -24 -56 -13 -29 -43
-97 -66 -152 -23 -55 -52 -122 -65 -150 -23 -50 -83 -186 -176 -402 -26 -62
-55 -127 -63 -145 -40 -88 -86 -198 -86 -204 0 -2 56 -4 123 -4 l124 0 151
348 c148 340 381 876 477 1100 27 61 51 112 55 112 3 0 23 -39 45 -87 21 -49
49 -113 63 -143 13 -30 64 -147 112 -260 106 -246 322 -745 354 -815 12 -27
42 -96 66 -152 l44 -103 123 0 123 0 -9 23 c-11 29 -785 1814 -822 1895 l-28
62 -70 0 c-38 0 -72 -3 -74 -8z"/>
<path d="M4244 2793 l-351 -3 -6 -353 c-4 -193 -7 -637 -7 -984 l0 -633 115 0
115 0 0 435 0 435 296 0 295 0 40 -32 c126 -102 236 -316 350 -683 l46 -150
117 -5 c64 -3 116 -2 116 2 0 18 -116 374 -157 483 -54 141 -139 316 -188 384
l-35 49 42 22 c145 75 248 204 286 360 26 106 10 266 -35 353 -52 101 -157
203 -263 257 -128 65 -181 69 -776 63z m572 -234 c221 -40 349 -254 266 -442
-37 -84 -141 -161 -252 -186 -26 -6 -187 -11 -382 -11 l-338 0 0 318 c0 175 3
322 7 325 11 12 634 8 699 -4z"/>
<path d="M6366 2772 c-12 -23 -822 -1887 -843 -1939 -4 -10 24 -13 119 -13
l123 0 79 183 c44 100 103 236 132 302 28 66 89 206 134 310 45 105 116 267
158 360 41 94 82 186 90 205 9 19 16 37 17 40 2 15 70 160 75 160 3 0 127
-280 275 -622 148 -343 300 -694 338 -780 l69 -158 124 0 c68 0 124 2 124 4 0
2 -7 21 -16 42 -16 39 -22 52 -68 157 -14 32 -26 59 -26 62 0 2 -15 36 -34 77
-18 40 -46 102 -61 138 -15 36 -35 83 -45 105 -10 22 -41 94 -69 160 -54 125
-59 136 -110 248 -17 37 -31 72 -31 78 0 5 -4 17 -10 27 -15 27 -73 157 -120
267 -23 55 -52 123 -65 150 -12 28 -42 95 -65 150 -23 55 -54 125 -68 155 -13
30 -35 79 -48 108 l-24 52 -70 0 c-66 0 -70 -1 -84 -28z"/>
<path d="M8630 2360 l0 -440 -610 0 -610 0 0 -115 0 -115 610 0 610 0 0 -434
0 -435 99 -3 c54 -2 106 -2 115 0 15 3 16 90 16 993 l0 989 -115 0 -115 0 0
-440z"/>
<path d="M5385 498 c-7 -18 -46 -107 -85 -198 -39 -91 -78 -180 -85 -197 l-14
-33 123 0 123 0 97 221 c53 121 96 225 96 230 0 5 -53 9 -121 9 l-120 0 -14
-32z"/>
</g>
</svg>
